# xmcd
#
# Track frame offsets: 
#        150
#        12468
#        25317
#        37889
#        50982
#        64244
#        77652
#        90883
#        104148
#        116761
#        129853
#        142579
#        154190
#        166164
#        177097
#        189061
#        200683
#        214256
#        227903
#        241947
#        254843
#        267350
#        278824
#        289739
#        303089
#        314204
#
# Disc length: 4353 seconds
#
# Revision: 4
# Processed by: cddbd v1.5.2PL0 Copyright (c) Steve Scherf et al.
# Submitted via: ExactAudioCopyFreeDBPlugin 1.0
#
DISCID=7510ff1a
DTITLE=Hank Williams - Hillbilly Hero [CD 2)
DYEAR=2002
DGENRE=Hillbilly
TTITLE0=Lost Highway
TTITLE1=May You Never Be Alone
TTITLE2=Dear Brother
TTITLE3=Jesus Remembered Me
TTITLE4=Mind Your Own Business
TTITLE5=You're Gonna Change
TTITLE6=Wedding Bells
TTITLE7=I've Just Told Mama Goodbye
TTITLE8=I'm So Lonesome I Could Cry
TTITLE9=A House Without Love
TTITLE10=I Just Don't Like This Kind Of Livin'
TTITLE11=My Bucket's Got A Hole In It
TTITLE12=Long Gone Lonesome Blues
TTITLE13=Why Don't You Love Me
TTITLE14=Why Should We Try Anymore
TTITLE15=My Son Calls Another Man Daddy
TTITLE16=Too Many Parties Too Many Pals
TTITLE17=Beyond The Sunset
TTITLE18=The Funeral
TTITLE19=Everything's Okay
TTITLE20=They'll Never Take Her Love From Me
TTITLE21=Nobody's Lonesome For Me
TTITLE22=Moanin' The Blues
TTITLE23=Help Me Understand
TTITLE24=No No Joe
TTITLE25=Cold Cold Heart
EXTD=YEAR: 2002
EXTT0=
EXTT1=
EXTT2=
EXTT3=
EXTT4=
EXTT5=
EXTT6=
EXTT7=
EXTT8=
EXTT9=
EXTT10=
EXTT11=
EXTT12=
EXTT13=
EXTT14=
EXTT15=
EXTT16=
EXTT17=
EXTT18=
EXTT19=
EXTT20=
EXTT21=
EXTT22=
EXTT23=
EXTT24=
EXTT25=
PLAYORDER=
